<svg width="31" height="34" viewBox="0 0 31 34" fill="none" xmlns="http://www.w3.org/2000/svg">
<path d="M3.75488 20.3333L22.0699 20.335C22.2432 20.6217 22.4532 20.8867 22.7032 21.1233L23.9015 22.26C23.7463 22.8468 23.5107 23.4093 23.2015 23.9317C22.888 24.4766 22.5029 24.9772 22.0565 25.42L20.7332 24.9783C19.9744 24.7285 19.1545 24.7346 18.3994 24.9956C17.6444 25.2567 16.9958 25.7582 16.5532 26.4233L15.3515 28.19C14.8431 28.9416 14.6102 29.8458 14.6922 30.7494C14.7742 31.6531 15.1661 32.5006 15.8015 33.1483L16.1799 33.5283C15.2765 33.6217 14.3299 33.6683 13.3332 33.6683C8.51655 33.6683 4.78655 32.575 2.18155 30.335C1.49877 29.7483 0.950798 29.021 0.57512 28.2029C0.199442 27.3848 0.0049262 26.4952 0.00488281 25.595V24.0833C0.00488281 23.5909 0.101879 23.1033 0.290335 22.6483C0.47879 22.1933 0.755013 21.7799 1.10323 21.4317C1.45145 21.0835 1.86485 20.8072 2.31982 20.6188C2.77479 20.4303 3.26243 20.3333 3.75488 20.3333ZM23.3499 17.4083L24.1899 15.43C24.5832 14.5033 25.5249 13.9983 26.4499 14.1917L26.6465 14.2417L27.6965 14.5783C28.7382 14.9117 29.5365 15.8033 29.7949 16.9233C30.4065 19.5867 29.6715 22.8283 27.5915 26.65C25.5132 30.4667 23.2349 32.76 20.7582 33.5333C20.2853 33.6799 19.7829 33.7043 19.298 33.6043C18.8131 33.5044 18.3613 33.2833 17.9849 32.9617L17.7799 32.7733L16.9815 31.9733C16.6459 31.6278 16.4291 31.1843 16.3626 30.7072C16.2961 30.2301 16.3833 29.7442 16.6115 29.32L16.7299 29.1267L17.9315 27.36C18.4049 26.665 19.2149 26.3367 19.9949 26.5017L20.2065 26.56L22.4265 27.3C23.3274 26.6129 24.0812 25.752 24.6432 24.7683C25.1292 23.9511 25.4656 23.0537 25.6365 22.1183L25.6999 21.6683L23.8515 19.915C23.553 19.6243 23.3408 19.2566 23.2385 18.8527C23.1361 18.4488 23.1475 18.0245 23.2715 17.6267L23.3499 17.41L24.1899 15.43L23.3499 17.4083ZM13.3332 0.341675C14.4276 0.341675 15.5112 0.557222 16.5222 0.976012C17.5333 1.3948 18.4519 2.00863 19.2258 2.78245C19.9996 3.55627 20.6134 4.47493 21.0322 5.48598C21.451 6.49703 21.6665 7.58066 21.6665 8.67501C21.6665 9.76936 21.451 10.853 21.0322 11.864C20.6134 12.8751 19.9996 13.7937 19.2258 14.5676C18.4519 15.3414 17.5333 15.9552 16.5222 16.374C15.5112 16.7928 14.4276 17.0083 13.3332 17.0083C11.1231 17.0083 9.00346 16.1304 7.44066 14.5676C5.87786 13.0048 4.99988 10.8851 4.99988 8.67501C4.99988 6.46487 5.87786 4.34525 7.44066 2.78245C9.00346 1.21965 11.1231 0.341675 13.3332 0.341675Z" fill="#7A49A3"/>
</svg>
